<svg width="22" height="22" viewBox="0 0 22 22" fill="none" xmlns="http://www.w3.org/2000/svg">
<path d="M19.8 8.11033V15.95C19.8 16.6794 19.5103 17.3788 18.9946 17.8946C18.4788 18.4103 17.7794 18.7 17.05 18.7H4.95001C4.22067 18.7 3.52119 18.4103 3.00547 17.8946C2.48974 17.3788 2.20001 16.6794 2.20001 15.95V8.11033L10.7206 13.1241C10.8053 13.174 10.9017 13.2004 11 13.2004C11.0983 13.2004 11.1948 13.174 11.2794 13.1241L19.8 8.11033ZM17.05 4.40002C17.7267 4.39992 18.3796 4.64929 18.8839 5.10044C19.3883 5.55158 19.7085 6.17283 19.7835 6.84532L11 12.012L2.21651 6.84532C2.29149 6.17283 2.61177 5.55158 3.11609 5.10044C3.6204 4.64929 4.27335 4.39992 4.95001 4.40002H17.05Z" fill="white"/>
</svg>
