<svg width="21" height="21" viewBox="0 0 21 21" fill="none" xmlns="http://www.w3.org/2000/svg">
<path d="M19.25 11.0833C19.1732 11.0837 19.0971 11.069 19.0261 11.04C18.955 11.011 18.8903 10.9682 18.8358 10.9141L10.5 2.57246L2.16417 10.9141C2.05257 11.0097 1.90903 11.0596 1.76222 11.054C1.61541 11.0483 1.47614 10.9874 1.37226 10.8835C1.26837 10.7797 1.20751 10.6404 1.20184 10.4936C1.19617 10.3468 1.2461 10.2032 1.34167 10.0916L10.0917 1.34163C10.201 1.23298 10.3488 1.172 10.5029 1.172C10.657 1.172 10.8049 1.23298 10.9142 1.34163L19.6642 10.0916C19.7444 10.1735 19.7988 10.2773 19.8204 10.3899C19.8421 10.5025 19.8301 10.619 19.7859 10.7248C19.7417 10.8306 19.6673 10.921 19.572 10.9848C19.4767 11.0486 19.3647 11.0828 19.25 11.0833Z" fill="white"/>
<path d="M10.5 4.54419L3.5 11.5675V18.6667C3.5 18.9761 3.62292 19.2729 3.84171 19.4916C4.0605 19.7104 4.35725 19.8334 4.66667 19.8334H8.75V14H12.25V19.8334H16.3333C16.6428 19.8334 16.9395 19.7104 17.1583 19.4916C17.3771 19.2729 17.5 18.9761 17.5 18.6667V11.5267L10.5 4.54419Z" fill="white"/>
</svg>
